<svg width="28" height="28" viewBox="0 0 28 28" fill="none" xmlns="http://www.w3.org/2000/svg">
<rect width="28" height="28" rx="5" fill="#163172"/>
<g clip-path="url(#clip0_312_771)">
<path d="M14.0322 22.951C9.09133 22.951 5.04883 18.9085 5.04883 13.9677C5.04883 9.02688 9.09133 4.98437 14.0322 4.98438C18.973 4.98438 23.0155 9.02688 23.0155 13.9677C23.0155 18.9085 18.973 22.951 14.0322 22.951ZM14.0322 6.10729C9.70091 6.10729 6.17174 9.63646 6.17174 13.9677C6.17174 18.299 9.70091 21.8281 14.0322 21.8281C18.3634 21.8281 21.8926 18.299 21.8926 13.9677C21.8926 9.63646 18.3634 6.10729 14.0322 6.10729Z" fill="white"/>
<path d="M14.0322 5.52979C9.38007 5.52979 5.59424 9.31562 5.59424 13.9677C5.59424 18.6198 9.38007 22.4056 14.0322 22.4056C18.6842 22.4056 22.4701 18.6198 22.4701 13.9677C22.438 9.31562 18.6842 5.52979 14.0322 5.52979ZM18.0105 17.946C17.9142 18.0423 17.7538 18.1065 17.6255 18.1065C17.4972 18.1065 17.3367 18.0423 17.2405 17.946L13.6472 14.3527C13.5509 14.2565 13.4867 14.096 13.4867 13.9677V8.89853C13.4867 8.5777 13.7434 8.32103 14.0642 8.32103C14.3851 8.32103 14.6417 8.5777 14.6417 8.89853V13.711L18.0426 17.1119C18.2351 17.3685 18.2351 17.7214 18.0105 17.946Z" fill="white"/>
</g>
<defs>
<clipPath id="clip0_312_771">
<rect width="19.25" height="19.25" fill="white" transform="translate(4.375 4.375)"/>
</clipPath>
</defs>
</svg>
