<svg width="52" height="52" viewBox="0 0 52 52" fill="none" xmlns="http://www.w3.org/2000/svg">
<circle cx="26" cy="26" r="26" fill="#163172"/>
<path d="M27.7802 29.9975C27.6868 29.9975 27.614 29.9975 27.5414 29.9975C25.0463 29.9975 22.5512 29.9978 20.056 29.9975C19.6861 29.9974 19.445 29.8279 19.3856 29.5245C19.3739 29.4639 19.375 29.4003 19.375 29.3383C19.3746 27.121 19.3745 24.9038 19.3747 22.6865C19.3748 22.2659 19.6025 22.0422 20.0296 22.0422C22.5361 22.0421 25.0426 22.0421 27.5491 22.0421C27.6166 22.0421 27.6845 22.0421 27.7802 22.0421C27.7802 21.9701 27.7802 21.9053 27.7802 21.8402C27.7802 19.8669 27.78 17.8934 27.7805 15.9198C27.7805 15.6482 27.91 15.4316 28.1293 15.3487C28.3816 15.2531 28.6054 15.2971 28.7956 15.4981C28.9047 15.6133 29.0234 15.7193 29.1354 15.8314C30.5484 17.2413 31.9611 18.6518 33.3737 20.0617C35.188 21.8721 37.0026 23.6821 38.8169 25.4925C39.119 25.7935 39.1206 26.1111 38.8221 26.409C36.2256 29.0011 33.6293 31.5934 31.032 34.1845C30.2933 34.9214 29.5507 35.6538 28.8126 36.3913C28.6227 36.5814 28.4108 36.6647 28.1515 36.5662C27.8993 36.4705 27.7806 36.272 27.7806 35.9599C27.7802 34.049 27.7803 32.1378 27.7803 30.2269C27.7802 30.1594 27.7802 30.0921 27.7802 29.9975ZM23.1161 15.4115C23.1161 16.1619 23.1161 16.8967 23.1161 17.6521C23.0425 17.6521 22.9763 17.6521 22.9102 17.6521C21.0105 17.6521 19.1108 17.6518 17.2111 17.6522C16.0073 17.6524 15.1208 18.5407 15.1207 19.7469C15.1206 23.9206 15.1282 28.0942 15.1157 32.2676C15.1123 33.3719 15.9524 34.1675 16.729 34.3128C16.9007 34.3445 17.078 34.359 17.2527 34.3593C19.1354 34.3627 21.0181 34.3614 22.9008 34.3614C22.9677 34.3614 23.0347 34.3614 23.1126 34.3614C23.1126 35.1095 23.1126 35.844 23.1126 36.5891C23.0859 36.5945 23.0546 36.6065 23.0233 36.6065C21.0215 36.6065 19.0195 36.6269 17.0182 36.5978C15.0622 36.5697 13.3301 35.0853 12.9568 33.1641C12.9042 32.8934 12.8784 32.6132 12.8781 32.3374C12.8733 28.1182 12.8621 23.8992 12.8807 19.6803C12.8885 17.9181 13.764 16.653 15.2931 15.8308C15.8326 15.5406 16.4284 15.4096 17.0426 15.408C19.0273 15.4027 21.0121 15.406 22.9968 15.4061C23.0303 15.4062 23.0638 15.4091 23.1161 15.4115Z" fill="white"/>
</svg>
